# Blender v3.0.1 OBJ File: ''
# www.blender.org
mtllib Colider.mtl
v -17.720291 12.350013 10.133238
v -24.421537 12.350013 8.248512
v -17.720291 4.602255 10.133238
v -30.738857 12.350013 8.492828
v -11.647285 12.350013 13.658374
v -7.947639 12.350013 19.591770
v -6.830767 12.350013 26.676941
v -6.237427 12.350013 35.751545
v -8.366468 12.350013 41.510429
v -14.264959 12.350013 47.618336
v -22.955637 12.350013 51.597198
v -34.717720 12.350013 51.806614
v -42.117012 12.350013 48.735207
v -46.479801 12.350013 49.188942
v -49.725716 12.350013 46.920288
v -49.935131 12.350013 42.662205
v -51.959465 12.350013 34.285645
v -53.006538 12.350013 23.082001
v -51.017105 12.350013 18.474894
v -40.581314 12.350013 11.843452
v -36.253426 12.350013 10.307749
v -24.421537 4.602255 8.248512
v -30.738857 4.602255 8.492828
v -11.647285 4.602255 13.658374
v -7.947639 4.602255 19.591770
v -6.830767 4.602255 26.676941
v -6.237427 4.602255 35.751545
v -8.366468 4.602255 41.510429
v -14.264959 4.602255 47.618336
v -22.955637 4.602255 51.597198
v -34.717720 4.602255 51.806614
v -42.117012 4.602255 48.735207
v -46.479801 4.602255 49.188942
v -49.725716 4.602255 46.920288
v -49.935131 4.602255 42.662205
v -51.959465 4.602255 34.285645
v -53.006538 4.602255 23.082001
v -51.017105 4.602255 18.474894
v -40.581314 4.602255 11.843452
v -36.253426 4.602255 10.307749
vt 0.000000 0.000000
vt 0.000000 0.000000
vt 0.000000 0.000000
vt 0.000000 0.000000
vt 0.000000 0.000000
vt 0.000000 0.000000
vt 0.000000 0.000000
vt 0.000000 0.000000
vt 0.000000 0.000000
vt 0.000000 0.000000
vt 0.000000 0.000000
vt 0.000000 0.000000
vt 0.000000 0.000000
vt 0.000000 0.000000
vt 0.000000 0.000000
vt 0.000000 0.000000
vt 0.000000 0.000000
vt 0.000000 0.000000
vt 0.000000 0.000000
vt 0.000000 0.000000
vt 0.000000 0.000000
vt 0.000000 0.000000
vt 0.000000 0.000000
vt 0.000000 0.000000
vt 0.000000 0.000000
vt 0.000000 0.000000
vt 0.000000 0.000000
vt 0.000000 0.000000
vt 0.000000 0.000000
vt 0.000000 0.000000
vt 0.000000 0.000000
vt 0.000000 0.000000
vt 0.000000 0.000000
vt 0.000000 0.000000
vt 0.000000 0.000000
vt 0.000000 0.000000
vt 0.000000 0.000000
vt 0.000000 0.000000
vt 0.000000 0.000000
vt 0.000000 0.000000
vn 0.5363 0.0000 0.8440
vn 0.3834 0.0000 -0.9236
vn -0.8486 0.0000 0.5291
vn 0.3344 0.0000 0.9424
vn -0.1034 0.0000 -0.9946
vn -0.9878 0.0000 0.1557
vn 0.3126 0.0000 0.9499
vn 0.5729 0.0000 -0.8196
vn -0.9979 0.0000 0.0652
vn 0.9988 0.0000 -0.0491
vn -0.9380 0.0000 -0.3468
vn -0.5020 0.0000 0.8649
vn 0.9720 0.0000 -0.2349
vn -0.7193 0.0000 -0.6947
vn -0.2707 0.0000 0.9627
vn 0.9957 0.0000 -0.0931
vn -0.4163 0.0000 -0.9092
vn 0.0386 0.0000 0.9993
vn 0.9181 0.0000 0.3964
vn -0.0178 0.0000 -0.9998
usemtl None
s off
f 19/1/1 38/2/1 39/3/1 20/4/1
f 12/5/2 31/6/2 32/7/2 13/8/2
f 5/9/3 24/10/3 25/11/3 6/12/3
f 20/4/4 39/3/4 40/13/4 21/14/4
f 13/8/5 32/7/5 33/15/5 14/16/5
f 6/12/6 25/11/6 26/17/6 7/18/6
f 4/19/7 21/14/7 40/13/7 23/20/7
f 14/16/8 33/15/8 34/21/8 15/22/8
f 7/18/9 26/17/9 27/23/9 8/24/9
f 15/22/10 34/21/10 35/25/10 16/26/10
f 8/24/11 27/23/11 28/27/11 9/28/11
f 1/29/12 3/30/12 24/10/12 5/9/12
f 16/26/13 35/25/13 36/31/13 17/32/13
f 9/28/14 28/27/14 29/33/14 10/34/14
f 2/35/15 22/36/15 3/30/15 1/29/15
f 17/32/16 36/31/16 37/37/16 18/38/16
f 10/34/17 29/33/17 30/39/17 11/40/17
f 4/19/18 23/20/18 22/36/18 2/35/18
f 18/38/19 37/37/19 38/2/19 19/1/19
f 11/40/20 30/39/20 31/6/20 12/5/20
